{
    "asset" : {
        "generator" : "Khronos glTF Blender I/O v1.8.19",
        "version" : "2.0"
    },
    "scene" : 0,
    "scenes" : [
        {
            "name" : "Scene",
            "nodes" : [
                0
            ]
        }
    ],
    "nodes" : [
        {
            "mesh" : 0,
            "name" : "GearSmall"
        }
    ],
    "materials" : [
        {
            "doubleSided" : true,
            "name" : "Mat_Metal",
            "pbrMetallicRoughness" : {
                "roughnessFactor" : 0.20000000298023224
            }
        }
    ],
    "meshes" : [
        {
            "name" : "Cylinder.003",
            "primitives" : [
                {
                    "attributes" : {
                        "POSITION" : 0,
                        "NORMAL" : 1,
                        "TEXCOORD_0" : 2
                    },
                    "indices" : 3,
                    "material" : 0
                }
            ]
        }
    ],
    "accessors" : [
        {
            "bufferView" : 0,
            "componentType" : 5126,
            "count" : 550,
            "max" : [
                0.3899615406990051,
                0.3779463768005371,
                0.03673052787780762
            ],
            "min" : [
                -0.3899616003036499,
                -0.39012765884399414,
                -0.03673100471496582
            ],
            "type" : "VEC3"
        },
        {
            "bufferView" : 1,
            "componentType" : 5126,
            "count" : 550,
            "type" : "VEC3"
        },
        {
            "bufferView" : 2,
            "componentType" : 5126,
            "count" : 550,
            "type" : "VEC2"
        },
        {
            "bufferView" : 3,
            "componentType" : 5123,
            "count" : 864,
            "type" : "SCALAR"
        }
    ],
    "bufferViews" : [
        {
            "buffer" : 0,
            "byteLength" : 6600,
            "byteOffset" : 0
        },
        {
            "buffer" : 0,
            "byteLength" : 6600,
            "byteOffset" : 6600
        },
        {
            "buffer" : 0,
            "byteLength" : 4400,
            "byteOffset" : 13200
        },
        {
            "buffer" : 0,
            "byteLength" : 1728,
            "byteOffset" : 17600
        }
    ],
    "buffers" : [
        {
            "byteLength" : 19328,
            "uri" : "data:application/octet-stream;base64,"
        }
    ]
}
