{
    "asset" : {
        "generator" : "Khronos glTF Blender I/O v1.8.19",
        "version" : "2.0"
    },
    "scene" : 0,
    "scenes" : [
        {
            "name" : "Scene",
            "nodes" : [
                0
            ]
        }
    ],
    "nodes" : [
        {
            "mesh" : 0,
            "name" : "GearBig"
        }
    ],
    "materials" : [
        {
            "doubleSided" : true,
            "name" : "Mat_Metal",
            "pbrMetallicRoughness" : {
                "roughnessFactor" : 0.20000000298023224
            }
        }
    ],
    "meshes" : [
        {
            "name" : "Cylinder.002",
            "primitives" : [
                {
                    "attributes" : {
                        "POSITION" : 0,
                        "NORMAL" : 1,
                        "TEXCOORD_0" : 2
                    },
                    "indices" : 3,
                    "material" : 0
                }
            ]
        }
    ],
    "accessors" : [
        {
            "bufferView" : 0,
            "componentType" : 5126,
            "count" : 572,
            "max" : [
                0.9472566843032837,
                0.9773669242858887,
                0.09205901622772217
            ],
            "min" : [
                -0.9777812361717224,
                -0.9773678779602051,
                -0.09205901622772217
            ],
            "type" : "VEC3"
        },
        {
            "bufferView" : 1,
            "componentType" : 5126,
            "count" : 572,
            "type" : "VEC3"
        },
        {
            "bufferView" : 2,
            "componentType" : 5126,
            "count" : 572,
            "type" : "VEC2"
        },
        {
            "bufferView" : 3,
            "componentType" : 5123,
            "count" : 864,
            "type" : "SCALAR"
        }
    ],
    "bufferViews" : [
        {
            "buffer" : 0,
            "byteLength" : 6864,
            "byteOffset" : 0
        },
        {
            "buffer" : 0,
            "byteLength" : 6864,
            "byteOffset" : 6864
        },
        {
            "buffer" : 0,
            "byteLength" : 4576,
            "byteOffset" : 13728
        },
        {
            "buffer" : 0,
            "byteLength" : 1728,
            "byteOffset" : 18304
        }
    ],
    "buffers" : [
        {
            "byteLength" : 20032,
            "uri" : "data:application/octet-stream;base64,"
        }
    ]
}
