{
    "asset" : {
        "generator" : "Khronos glTF Blender I/O v1.8.19",
        "version" : "2.0"
    },
    "scene" : 0,
    "scenes" : [
        {
            "name" : "Scene",
            "nodes" : [
                0
            ]
        }
    ],
    "nodes" : [
        {
            "mesh" : 0,
            "name" : "GearSmall",
            "rotation" : [
                -0.5,
                0.5,
                -0.4999999701976776,
                0.5
            ],
            "scale" : [
                0.23413945734500885,
                0.03673074394464493,
                0.23413945734500885
            ],
            "translation" : [
                -1.3693081140518188,
                4.019101619720459,
                1.1435505151748657
            ]
        }
    ],
    "materials" : [
        {
            "doubleSided" : true,
            "name" : "Mat_Metal",
            "pbrMetallicRoughness" : {
                "roughnessFactor" : 0.20000000298023224
            }
        }
    ],
    "meshes" : [
        {
            "name" : "Cylinder.003",
            "primitives" : [
                {
                    "attributes" : {
                        "POSITION" : 0,
                        "NORMAL" : 1,
                        "TEXCOORD_0" : 2
                    },
                    "indices" : 3,
                    "material" : 0
                }
            ]
        }
    ],
    "accessors" : [
        {
            "bufferView" : 0,
            "componentType" : 5126,
            "count" : 530,
            "max" : [
                1.666215181350708,
                1,
                1.6655097007751465
            ],
            "min" : [
                -1.6141984462738037,
                -1,
                -1.6655097007751465
            ],
            "type" : "VEC3"
        },
        {
            "bufferView" : 1,
            "componentType" : 5126,
            "count" : 530,
            "type" : "VEC3"
        },
        {
            "bufferView" : 2,
            "componentType" : 5126,
            "count" : 530,
            "type" : "VEC2"
        },
        {
            "bufferView" : 3,
            "componentType" : 5123,
            "count" : 864,
            "type" : "SCALAR"
        }
    ],
    "bufferViews" : [
        {
            "buffer" : 0,
            "byteLength" : 6360,
            "byteOffset" : 0
        },
        {
            "buffer" : 0,
            "byteLength" : 6360,
            "byteOffset" : 6360
        },
        {
            "buffer" : 0,
            "byteLength" : 4240,
            "byteOffset" : 12720
        },
        {
            "buffer" : 0,
            "byteLength" : 1728,
            "byteOffset" : 16960
        }
    ],
    "buffers" : [
        {
            "byteLength" : 18688,
            "uri" : "data:application/octet-stream;base64,"
        }
    ]
}
