{
    "asset" : {
        "generator" : "Khronos glTF Blender I/O v1.8.19",
        "version" : "2.0"
    },
    "scene" : 0,
    "scenes" : [
        {
            "name" : "Scene",
            "nodes" : [
                0
            ]
        }
    ],
    "nodes" : [
        {
            "mesh" : 0,
            "name" : "GearMedium"
        }
    ],
    "materials" : [
        {
            "doubleSided" : true,
            "name" : "Mat_Metal",
            "pbrMetallicRoughness" : {
                "roughnessFactor" : 0.20000000298023224
            }
        }
    ],
    "meshes" : [
        {
            "name" : "Cylinder.001",
            "primitives" : [
                {
                    "attributes" : {
                        "POSITION" : 0,
                        "NORMAL" : 1,
                        "TEXCOORD_0" : 2
                    },
                    "indices" : 3,
                    "material" : 0
                }
            ]
        }
    ],
    "accessors" : [
        {
            "bufferView" : 0,
            "componentType" : 5126,
            "count" : 528,
            "max" : [
                0.6400991678237915,
                0.6203794479370117,
                0.06029105186462402
            ],
            "min" : [
                -0.6400995850563049,
                -0.6403698921203613,
                -0.06029176712036133
            ],
            "type" : "VEC3"
        },
        {
            "bufferView" : 1,
            "componentType" : 5126,
            "count" : 528,
            "type" : "VEC3"
        },
        {
            "bufferView" : 2,
            "componentType" : 5126,
            "count" : 528,
            "type" : "VEC2"
        },
        {
            "bufferView" : 3,
            "componentType" : 5123,
            "count" : 864,
            "type" : "SCALAR"
        }
    ],
    "bufferViews" : [
        {
            "buffer" : 0,
            "byteLength" : 6336,
            "byteOffset" : 0
        },
        {
            "buffer" : 0,
            "byteLength" : 6336,
            "byteOffset" : 6336
        },
        {
            "buffer" : 0,
            "byteLength" : 4224,
            "byteOffset" : 12672
        },
        {
            "buffer" : 0,
            "byteLength" : 1728,
            "byteOffset" : 16896
        }
    ],
    "buffers" : [
        {
            "byteLength" : 18624,
            "uri" : "data:application/octet-stream;base64,"
        }
    ]
}
