{
    "asset" : {
        "generator" : "Khronos glTF Blender I/O v1.8.19",
        "version" : "2.0"
    },
    "scene" : 0,
    "scenes" : [
        {
            "name" : "Scene",
            "nodes" : [
                0
            ]
        }
    ],
    "nodes" : [
        {
            "mesh" : 0,
            "name" : "Heart"
        }
    ],
    "materials" : [
        {
            "doubleSided" : true,
            "emissiveFactor" : [
                1,
                0,
                0.05760040506720543
            ],
            "name" : "Mat_Heart",
            "pbrMetallicRoughness" : {
                "baseColorFactor" : [
                    0.8000000715255737,
                    0,
                    0.017669688910245895,
                    1
                ],
                "metallicFactor" : 0,
                "roughnessFactor" : 0.30000001192092896
            }
        }
    ],
    "meshes" : [
        {
            "name" : "Cube.008",
            "primitives" : [
                {
                    "attributes" : {
                        "POSITION" : 0,
                        "NORMAL" : 1,
                        "TEXCOORD_0" : 2
                    },
                    "indices" : 3,
                    "material" : 0
                }
            ]
        }
    ],
    "accessors" : [
        {
            "bufferView" : 0,
            "componentType" : 5126,
            "count" : 217,
            "max" : [
                0.2780722379684448,
                0.22613072395324707,
                0.0418388694524765
            ],
            "min" : [
                -0.2780725955963135,
                -0.23815083503723145,
                -0.041838839650154114
            ],
            "type" : "VEC3"
        },
        {
            "bufferView" : 1,
            "componentType" : 5126,
            "count" : 217,
            "type" : "VEC3"
        },
        {
            "bufferView" : 2,
            "componentType" : 5126,
            "count" : 217,
            "type" : "VEC2"
        },
        {
            "bufferView" : 3,
            "componentType" : 5123,
            "count" : 384,
            "type" : "SCALAR"
        }
    ],
    "bufferViews" : [
        {
            "buffer" : 0,
            "byteLength" : 2604,
            "byteOffset" : 0
        },
        {
            "buffer" : 0,
            "byteLength" : 2604,
            "byteOffset" : 2604
        },
        {
            "buffer" : 0,
            "byteLength" : 1736,
            "byteOffset" : 5208
        },
        {
            "buffer" : 0,
            "byteLength" : 768,
            "byteOffset" : 6944
        }
    ],
    "buffers" : [
        {
            "byteLength" : 7712,
            "uri" : "data:application/octet-stream;base64,"
        }
    ]
}
